<!--?xml version="1.0" standalone="no"?-->
              <svg id="sw-js-blob-svg" viewBox="0 0 100 100" xmlns="http://www.w3.org/2000/svg" version="1.1">
                    <defs> 
                        <linearGradient id="sw-gradient" x1="0" x2="1" y1="1" y2="0">
                            <stop id="stop1" stop-color="rgba(69.806, 91.719, 220.763, 1)" offset="0%"></stop>
                            <stop id="stop2" stop-color="rgba(146, 144, 195, 1)" offset="100%"></stop>
                        </linearGradient>
                    </defs>
                <path fill="url(#sw-gradient)" d="M20.6,-25.5C26,-20.1,29.2,-12.9,29.7,-5.9C30.1,1.1,27.9,8,24.7,15C21.5,22,17.4,29.3,10.5,34.2C3.5,39,-6.2,41.5,-14.9,39.1C-23.5,36.7,-31,29.5,-33.8,21.2C-36.5,12.9,-34.5,3.6,-31.8,-4.6C-29.1,-12.7,-25.8,-19.8,-20.4,-25.2C-15,-30.7,-7.5,-34.6,0.1,-34.7C7.6,-34.8,15.2,-31,20.6,-25.5Z" width="100%" height="100%" transform="translate(50 50)" stroke-width="0" style="transition: 0.3s;" stroke="url(#sw-gradient)"></path>
              </svg>