<!--?xml version="1.0" standalone="no"?-->
              <svg id="sw-js-blob-svg" viewBox="0 0 100 100" xmlns="http://www.w3.org/2000/svg" version="1.1">
                    <defs> 
                        <linearGradient id="sw-gradient" x1="0" x2="1" y1="1" y2="0">
                            <stop id="stop1" stop-color="rgba(83, 92, 145, 1)" offset="0%"></stop>
                            <stop id="stop2" stop-color="rgba(146, 144, 195, 1)" offset="100%"></stop>
                        </linearGradient>
                    </defs>
                <path fill="url(#sw-gradient)" d="M15.4,-15.5C22.9,-12.1,34,-10,36.2,-5.2C38.4,-0.5,31.8,7,24.8,10C17.9,12.9,10.8,11.4,4.4,15C-2,18.7,-7.6,27.5,-11.3,27.7C-15.1,27.9,-16.9,19.3,-19.8,12.3C-22.8,5.4,-27,-0.1,-27.8,-6.6C-28.6,-13.1,-26.2,-20.6,-21,-24.5C-15.8,-28.3,-7.9,-28.3,-2,-25.9C3.9,-23.6,7.9,-18.9,15.4,-15.5Z" width="100%" height="100%" transform="translate(50 50)" stroke-width="0" style="transition: 0.3s;"></path>
              </svg>