
<svg xmlns="http://www.w3.org/2000/svg" viewBox="0 0 2000 2000"><defs><clipPath id="a"><path fill="none" d="M1116.928,1732.093H343.811c-15.907,0-30.284-12.646-32.113-28.259L261.16,1272.487c-1.88-16.042,9.683-29.059,25.828-29.059h784.67c16.144,0,30.427,13.017,31.9,29.059l39.58,431.347C1144.57,1719.447,1132.835,1732.093,1116.928,1732.093Z"/></clipPath></defs><rect width="1600" height="1600" x="228.046" y="191.482" fill="#6556ff" opacity=".2" rx="799.999"/><path fill="#080717" d="M958.465,967.58s-40.943-79.226,63.5-157.238,21.485-236.819,121.292-356.352L1328.25,769.615l26.218,223.919Z"/><rect width="141.962" height="214.282" x="1283.487" y="779.251" fill="#fff"/><path fill="#090817" d="M1425.448,997.533H1283.487a4,4,0,0,1-4-4V779.252a4,4,0,0,1,4-4h141.961a4,4,0,0,1,4,4V993.533A4,4,0,0,1,1425.448,997.533Zm-137.961-8h133.961V783.252H1287.487Z"/><path fill="#6556ff" d="M477.209,1056.736a215.9,215.9,0,0,1,47.7-59.6c112.866-97.661,252.305-.768,432.609-68.532,18.866-7.09,77.789-30.87,143.489-34.266,42.53-2.2,84.386,1.959,84.386,1.959,21.376,2.123,29.463,4.191,49.09,6.809,43.919,5.859,78.022,5.453,103.174,5.153,108.451-1.293,134.323-25.206,209.32-8.979a324.441,324.441,0,0,1,41.693,12.191c91.622,33.946,182.092,309.466,220.636,684.9H509.62Z"/><path fill="#fff" d="M1566.16,605.892c0-.052,0-.1,0-.155,0-2.315-.1-4.605-.168-6.9.087-2.178.151-4.311.168-6.349l-.4-.338c-6.761-123.894-105.266-222.2-225.828-222.2-116.937,0-213.138,92.475-224.988,211.085l-.009.011S1073.185,833.3,1285.987,870.366c135.563,23.613,211.8-59.627,249.485-146.1a238.926,238.926,0,0,0,11.41-23.287,48.981,48.981,0,1,0,19.278-95.09Z"/><path fill="#090817" d="M1331.321,878.444a267.855,267.855,0,0,1-46.019-4.137c-112.071-19.522-153.506-98.639-168.531-161.574-16.163-67.7-5.885-131.7-5.778-132.342,12.2-122.149,110.637-214.443,228.942-214.443,121.527,0,222.193,98.554,229.744,224.628a3.975,3.975,0,0,1,.484,1.938c-.016,2.078-.082,4.258-.172,6.48l.061,1.6c.017.555.037,1.109.052,1.664a53,53,0,0,1-7,105.529,52.388,52.388,0,0,1-13.979-1.914c-3.062,6.924-6.471,13.752-10.158,20.348C1513.073,785.676,1453.007,878.438,1331.321,878.444Zm8.614-504.5c-114.176,0-209.19,89.2-221.008,207.484-.145.889-10.17,63.51,5.679,129.666,21.084,88.008,75.612,140.267,162.067,155.326,147.588,25.717,216.928-79.033,245.133-143.754a243.38,243.38,0,0,0,11.394-23.25,4.006,4.006,0,0,1,5.006-2.213,44.98,44.98,0,1,0,17.707-87.322,4,4,0,0,1-3.754-3.992c0-.051,0-.18,0-.229,0-1.564-.055-3.185-.107-4.81l-.059-1.91c.066-1.85.121-3.514.149-5.092a4,4,0,0,1-.377-1.488C1555.087,469.887,1457.646,373.948,1339.935,373.948Z"/><path fill="#080717" d="M1454.513,599.533a3.988,3.988,0,0,1-2.791-1.134c-39.01-37.994-83.342-22.614-85.209-21.942a4,4,0,0,1-2.733-7.517c.506-.186,50.826-17.86,93.524,23.728a4,4,0,0,1-2.791,6.865Z"/><path fill="#080717" d="M1415.509,635.057c-5.383,0-10.184-3.393-14.086-6.152a50.643,50.643,0,0,0-5.328-3.456c-6.289-3.31-13.664.256-13.737.293a4,4,0,0,1-3.593-7.148c.445-.227,11.074-5.477,21.056-.223a56.9,56.9,0,0,1,6.219,4c7.053,4.983,9.918,6.366,14.348,2.219a4,4,0,0,1,5.461,5.848C1422.235,633.815,1418.765,635.057,1415.509,635.057Z"/><circle cx="1388.331" cy="639.306" r="23.21" fill="#080717"/><path fill="#080717" d="M1163.7,584.477a4,4,0,0,1-2.738-6.916,77.094,77.094,0,0,1,84.531-14.112,4,4,0,1,1-3.285,7.293,69.105,69.105,0,0,0-75.77,12.651A3.988,3.988,0,0,1,1163.7,584.477Z"/><path fill="#080717" d="M1182.021,621.031c-3.7,0-7.54-1.5-11.245-5.837a4,4,0,0,1,6.086-5.192c3.938,4.613,6.936,3.565,14.5-.588a56.618,56.618,0,0,1,6.635-3.275c10.512-4.1,20.477,2.32,20.9,2.594a4,4,0,0,1-4.376,6.7h0c-.071-.045-7.006-4.422-13.616-1.838a50.406,50.406,0,0,0-5.689,2.834C1191.419,618.51,1186.831,621.031,1182.021,621.031Z"/><circle cx="1207.056" cy="628.234" r="23.21" fill="#080717"/><path fill="#080717" d="M1302.7,693.041c-9.453,0-26.877-1.144-31.705-9.244-5.592-9.383,10.992-48.492,18.381-64.871a4,4,0,0,1,7.293,3.289c-10.787,23.914-20.906,52.738-18.777,57.531,2.517,4.217,18.877,5.727,29.726,5.18a4,4,0,0,1,.4,7.988C1306.985,692.967,1305.1,693.041,1302.7,693.041Z"/><ellipse cx="1423.629" cy="700.213" fill="#6556ff" rx="32.065" ry="20.931" transform="rotate(-.402 1422.967 699.958)"/><ellipse cx="1188.67" cy="696.033" fill="#6556ff" rx="32.065" ry="20.931" transform="rotate(-.402 1188.096 695.714)"/><rect width="169.413" height="52.132" x="1256.036" y="886.393" fill="#6556ff"/><path fill="#080717" d="M1111.622,605.018s-56.042-72.588-29.9-142.312,81.33-54.783,125.33-99.605,110.131-68.479,147.412-19.922c0,0,121.944-43.577,211.589,26.769s79.685,211.211,77.194,373.607,120.44,205.031,166.051,330.631-44.147,230.208-44.147,230.208c-27.09-103.647-55.03-191.368-79.571-261.487-1.931-5.515-33.07-92.019-86.532-123.884-7.816-4.658-24.148-14.393-46.224-14.941-20.019-.5-27.764,6.983-50.892,12.139-16.072,3.584-53.475,11.924-71.435-2.8-25.29-20.734-14.489-89.213,18-134.169,34.3-47.453,98.381-78.269,98.381-78.269h0s39.678,6.7,54.1-15.1,12.335-44.856,4.988-54.863S1577.107,604.8,1563.1,611.8s-28.169,27.246-34.395-3.03-24.631-210.811-163.591-223.261c0,0-83.413-3.735-134.842,49.8S1163.929,601.658,1111.622,605.018Z"/><path fill="#080717" d="M1295.308,777.66a4,4,0,0,1-3.643-5.648,72.9,72.9,0,0,1,24.975-29.969,73.811,73.811,0,0,1,40.117-12.849h.072a4,4,0,0,1,.068,8,65.676,65.676,0,0,0-35.714,11.435,64.891,64.891,0,0,0-22.229,26.676A4,4,0,0,1,1295.308,777.66Z"/><path fill="#080717" d="M1568.7,687.239a4,4,0,0,1-3.254-6.321c5.289-7.429,7.092-13.916,5.362-19.283-2.678-8.3-13.08-11.922-13.184-11.957a4,4,0,0,1-.441-7.4l31.283-14.864a4,4,0,1,1,3.433,7.227l-24,11.4c4.023,2.711,8.507,6.944,10.5,13.074,2.582,7.92.416,16.817-6.437,26.444A3.993,3.993,0,0,1,1568.7,687.239Z"/><path fill="#fff" d="M1211.948,1805.581h-911.7c-11.415,0-19.31-8.76-17.635-19.567L396,1054.638c1.693-10.923,12.371-19.78,23.85-19.78h916.786c11.479,0,19.349,8.857,17.58,19.78l-118.435,731.376C1234.034,1796.821,1223.362,1805.581,1211.948,1805.581Z"/><path fill="#090817" d="M1211.948,1809.58h-911.7a22.23,22.23,0,0,1-17.027-7.429,20.478,20.478,0,0,1-4.559-16.75L392.05,1054.026c1.98-12.776,14.453-23.168,27.8-23.168H1336.64a21.87,21.87,0,0,1,17.029,7.461,20.628,20.628,0,0,1,4.5,16.961l-118.436,731.373C1237.685,1799.3,1225.222,1809.58,1211.948,1809.58ZM419.853,1038.858c-9.571,0-18.5,7.353-19.9,16.394L286.571,1786.627a12.6,12.6,0,0,0,2.727,10.319,14.08,14.08,0,0,0,10.953,4.634h911.7c9.52,0,18.44-7.269,19.887-16.2L1350.271,1054a12.744,12.744,0,0,0-2.694-10.5,14.009,14.009,0,0,0-10.937-4.646Z"/><path fill="#fff" d="M475.875,1062.931s-23.747-59.463-5.512-74.016,33.076,8.316,33.076,8.316,4.24-19.128,22.051-19.959S547.117,996.4,547.117,996.4s5.936-20.841,23.747-19.153,19.93,20.817,19.93,20.817,15.266-26.442,34.773-20.914.848,90.356-8.481,101.167-28.836-19.128-28.836-19.128-21.227,59.047-39.449,4.158c0,0-16.95,56.552-38.577,7.9C510.224,1071.247,491.989,1109.859,475.875,1062.931Z"/><path fill="#090817" d="M528.1,1095c-6.565,0-12.561-5.05-18.209-15.373-3.584,5.037-9.412,10.95-16.617,10.543-8.4-.465-15.319-8.92-21.145-25.845-2.707-6.8-24.143-62.661-4.258-78.534,5.815-4.638,11.981-6.474,18.307-5.445,6.8,1.1,12.308,5.365,15.918,9.022,3.664-7.321,10.986-15.516,23.211-16.088,11.32-.489,18.285,6.047,22.162,12.875,4.523-7.106,12.33-13.983,23.777-12.887,11.487,1.09,17.912,8.584,21.076,15.668,6.569-8.2,19.075-19.971,34.34-15.631,4.444,1.258,7.633,5.022,9.481,11.182,7.306,24.369-7.328,86.369-16.024,96.447a10.225,10.225,0,0,1-8.668,3.715c-8.119-.547-16.978-10.332-22.248-17.215-4.195,9.236-12.375,23.553-23.064,23.277-6.633-.082-12.328-5.394-17.281-16.176-3.9,8.706-10.663,19.85-19.936,20.44C528.642,1094.989,528.366,1095,528.1,1095Zm-17.871-27.75h.045a4,4,0,0,1,3.609,2.375c5.025,11.3,10.435,17.713,14.529,17.366,6.4-.4,13.539-14.741,16.561-24.791a4,4,0,0,1,3.775-2.848,3.939,3.939,0,0,1,3.854,2.738c6.152,18.533,11.584,20.6,13.632,20.621h.053c6.371,0,14.473-14.525,18.2-24.875a4,4,0,0,1,7.116-.83c5.183,7.946,14.935,19.3,20.384,19.66a2.268,2.268,0,0,0,2.071-.959c6.2-7.183,21.088-66.681,14.42-88.923-.7-2.319-1.954-5.2-4-5.784-16.266-4.615-30.082,18.832-30.221,19.071a4,4,0,0,1-7.438-1.563c-.074-.637-2.048-15.922-16.33-17.275-14.279-1.383-19.318,15.556-19.527,16.275a3.938,3.938,0,0,1-4.029,2.885,4,4,0,0,1-3.744-3.238c-.131-.664-3.54-16.594-17.51-15.883-14.471.676-18.186,16.181-18.336,16.842a4,4,0,0,1-7.258,1.3c-.059-.089-6.5-9.781-15.223-11.173-4.058-.653-7.982.6-12,3.806-11.593,9.254-2.023,47.483,6.733,69.4.023.062.047.123.068.185,6.246,18.19,11.906,20.43,14.051,20.547,5.035.393,10.893-8.393,12.9-12.641A4.006,4.006,0,0,1,510.224,1067.246Z"/><path fill="#080717" d="M510.22,1075.246a4,4,0,0,1-3.987-3.707l-5.677-77.433a4,4,0,0,1,7.98-.586l5.678,77.433a4,4,0,0,1-3.7,4.284C510.417,1075.242,510.317,1075.246,510.22,1075.246Z"/><path fill="#080717" d="M547.671,1070.7h-.063a4,4,0,0,1-3.939-4.061l1.131-74.566a4,4,0,0,1,4-3.94h.062a4,4,0,0,1,3.94,4.061l-1.131,74.566A4,4,0,0,1,547.671,1070.7Z"/><path fill="#080717" d="M588.253,1063.188c-.109,0-.221,0-.332-.014a4,4,0,0,1-3.658-4.314l5.386-65.375a4,4,0,1,1,7.973.656l-5.387,65.375A4,4,0,0,1,588.253,1063.188Z"/><polygon fill="#080717" points="397.887 703.123 446.364 845.644 363.552 728.649 397.887 703.123"/><polygon fill="#080717" points="632.1 669.642 632.1 858.82 694.553 680.73 632.1 669.642"/><polygon fill="#080717" points="363.552 960.798 232.4 907.219 232.4 960.798 363.552 960.798"/><path fill="#fff" d="M1138.928,1169.788H486.145l-7.375-67.018c-1.736-15.781-15.953-28.584-31.754-28.584H200.363c-15.8,0-27.083,12.8-25.2,28.584l10.5,88.131,2.516,21.117,68.063,571.248c1.339,11.238,11.728,20.342,23.207,20.342h916.786c11.478,0,19.966-9.1,18.957-20.342L1162.01,1190.9A23.615,23.615,0,0,0,1138.928,1169.788Z"/><path fill="#090817" d="M1196.233,1807.608H279.446c-13.418,0-25.609-10.707-27.179-23.869l-81.079-680.5a29.452,29.452,0,0,1,7.01-23.4,29.136,29.136,0,0,1,22.166-9.654H447.017c17.752,0,33.779,14.422,35.73,32.146l6.982,63.457h649.2a27.72,27.72,0,0,1,27.066,24.754l53.18,592.365a22.368,22.368,0,0,1-5.711,17.315A23,23,0,0,1,1196.233,1807.608ZM200.364,1078.186a21.245,21.245,0,0,0-16.185,6.967,21.548,21.548,0,0,0-5.045,17.144l81.078,680.5c1.105,9.272,9.734,16.815,19.234,16.815h916.787a15.1,15.1,0,0,0,11.327-4.784,14.443,14.443,0,0,0,3.646-11.2l-53.18-592.365a19.559,19.559,0,0,0-19.1-17.469H486.146a4,4,0,0,1-3.977-3.562l-7.375-67.02c-1.518-13.8-13.979-25.021-27.777-25.021Z"/><g clip-path="url(#a)"><path fill="#fff" d="M1116.928,1732.093H343.811c-15.907,0-30.284-12.646-32.113-28.259L261.16,1272.487c-1.88-16.042,9.683-29.059,25.828-29.059h784.67c16.144,0,30.427,13.017,31.9,29.059l39.58,431.347C1144.57,1719.447,1132.835,1732.093,1116.928,1732.093Z"/><path fill="#090817" d="M1116.927,1736.092H343.812c-17.846,0-34.034-14.262-36.086-31.793l-50.539-431.348a29.4,29.4,0,0,1,29.8-33.523h784.67c18.131,0,34.229,14.666,35.883,32.693l39.58,431.348a29.513,29.513,0,0,1-7.492,22.895A30.267,30.267,0,0,1,1116.927,1736.092Zm-829.94-488.664a21.41,21.41,0,0,0-21.855,24.594l50.539,431.347c1.6,13.633,14.221,24.723,28.141,24.723h773.115a22.364,22.364,0,0,0,16.793-7.121,21.61,21.61,0,0,0,5.435-16.772l-39.58-431.347c-1.287-14.02-13.81-25.424-27.918-25.424Z"/><path fill="#080717" d="M238.671,1534.755s260.7-106.628,333.7-110.665c73.021-4.038,96.749,104.647,148.221,110.665,51.452,6.015,97.03-167.29,219.735-187.56,122.855-20.3,198.912,95.733,198.912,95.733l30.326,332.7H299.578Z"/><path fill="#080717" d="M428.1,1279.906c5.933,52.9-32.365,95.66-85.524,95.66s-101.3-42.76-107.539-95.66c-6.261-53.069,31.993-96.214,85.46-96.214S422.15,1226.837,428.1,1279.906Z"/></g><path fill="#fff" d="M741.554,195.4c102.094,0,184.858,82.764,184.858,184.858a184.375,184.375,0,0,1-61.1,137.3l49.736,63.08a5.291,5.291,0,0,1-5.927,8.262L807.759,552.855a184.353,184.353,0,0,1-66.205,12.259c-102.094,0-184.857-82.763-184.857-184.857S639.46,195.4,741.554,195.4Z"/><path fill="#090817" d="M910.937,593.213a9.421,9.421,0,0,1-3.153-.547L807.8,557.115a188.047,188.047,0,0,1-66.25,12c-104.137,0-188.858-84.721-188.858-188.858S637.417,191.4,741.554,191.4s188.857,84.72,188.857,188.857a189.205,189.205,0,0,1-59.66,137.731l47.441,60.171a9.3,9.3,0,0,1-7.255,15.055ZM807.759,548.854a4,4,0,0,1,1.34.23l101.365,36.043a1.291,1.291,0,0,0,1.447-2.015L862.175,520.03a4,4,0,0,1,.461-5.448,181.191,181.191,0,0,0,59.775-134.326c0-99.725-81.133-180.857-180.857-180.857S560.7,280.531,560.7,380.256s81.133,180.858,180.858,180.858a180.05,180.05,0,0,0,64.771-12A4,4,0,0,1,807.759,548.854Z"/><path d="M746.952,482.981h-10.8a60.844,60.844,0,0,1-60.773-60.776V336.172A60.843,60.843,0,0,1,736.155,275.4h10.8a60.844,60.844,0,0,1,60.776,60.775v86.033A60.845,60.845,0,0,1,746.952,482.981ZM736.155,307.4a28.807,28.807,0,0,0-28.773,28.775v86.033a28.807,28.807,0,0,0,28.773,28.776h10.8a28.808,28.808,0,0,0,28.776-28.776V336.172A28.808,28.808,0,0,0,746.952,307.4Z"/><path fill="#fff" d="M1125.308,523.977a3.868,3.868,0,0,1-.455-.026,4,4,0,0,1-3.524-4.42c.115-1.019,12.858-102.519,133.152-153.269a4,4,0,1,1,3.11,7.371c-60.526,25.535-92.176,64.053-108.069,91.869-17.248,30.19-20.216,54.684-20.244,54.928A4,4,0,0,1,1125.308,523.977Z"/><path fill="#fff" d="M1590.185,564.635a4.025,4.025,0,0,1-.791-.078c-54.842-11.02-109.438-151.707-111.735-157.692a4,4,0,0,1,7.469-2.867,682.216,682.216,0,0,0,34.213,73.166c26.265,47.9,51.033,75.41,71.627,79.549a4,4,0,0,1-.783,7.922Z"/><path fill="#fff" d="M1612.128,517.754c-.08,0-.158,0-.238-.008-44.278-2.6-69.61-59.73-70.666-62.16a4,4,0,0,1,7.336-3.191c.24.549,24.443,55.051,63.8,57.367a4,4,0,0,1-.23,7.992Z"/><path fill="#fff" d="M1005.776,897.658a4,4,0,0,1-4-3.863c-.054-1.59-.814-39.2,44.711-59.359,42.86-18.981,53.4-73.914,51.789-97.543a4,4,0,0,1,7.981-.543c.89,13.058-1.362,34.525-10.35,55.611-7.033,16.5-20.754,38.529-46.182,49.791-40.636,18-39.964,51.434-39.953,51.77a4,4,0,0,1-3.861,4.134C1005.868,897.658,1005.821,897.658,1005.776,897.658Z"/><path fill="#fff" d="M1780.208,1167.68a4.007,4.007,0,0,1-3.8-5.24c17.373-53.358-39.218-182.623-123.133-246.8-86.925-66.482-67.209-162.107-67-163.064a4,4,0,0,1,7.817,1.7c-.2.91-18.736,91.7,64.043,155.005,39.912,30.526,77.16,78.508,102.195,131.645,23.717,50.344,32.572,96.7,23.684,123.99A4,4,0,0,1,1780.208,1167.68Z"/><path fill="#fff" d="M994.063,1607.805s-24.793-18.125-60.212-24.375-47.224-49.374-64.934-43.124,5.313,58.749,21.251,67.5c0,0-70.837,7.5-96.22,3.75s-72.056-18.044-79.121-10.585-1.752,24.96,15.367,30.585c0,0-42.5-12.5-46.635,4.375s37.9,28.75,37.9,28.75-27.864-5-28.455,6.875,14.758,26.875,52.538,36.25c0,0-30.733-8.167-30.715,10.624s76.169,40.625,149.958,50,109.8,1.25,129.278-6.875,42.5-8.75,42.5-8.75,25.973-103.124,0-142.5Z"/><path fill="#090817" d="M924.638,1776.666a483.342,483.342,0,0,1-60.358-4.267c-61.67-7.836-153.427-28.674-153.453-53.965,0-5.176,1.938-9.408,5.617-12.24a17.1,17.1,0,0,1,4.123-2.309c-20.711-8.729-32.17-20.254-31.556-32.529a10.248,10.248,0,0,1,3.988-7.7,17.409,17.409,0,0,1,6.867-3.053c-11.494-5.77-22.92-14.481-20.191-25.621a13.561,13.561,0,0,1,6.658-8.631c6.68-3.844,17.234-3.7,26.475-2.5a26.484,26.484,0,0,1-4.329-9.1c-1.634-6.467-.378-12.492,3.444-16.527,6.109-6.463,24.857-2.742,54.937,3.859,10.252,2.25,19.938,4.375,27.672,5.518,19.182,2.834,65.918-1,85.908-2.861-11.91-13.233-23.054-39.42-21.82-54.577.727-8.9,5.277-12.326,8.965-13.627,10.85-3.824,18.965,5.356,28.371,15.985,9.91,11.2,21.143,23.894,38.59,26.972a163.059,163.059,0,0,1,60.891,24.389l41.363,2.434a3.993,3.993,0,0,1,3.105,1.789c26.639,40.383,1.617,141.4.539,145.679a4,4,0,0,1-3.769,3.022c-.223.006-22.539.713-41.072,8.443C977.325,1772.869,953.864,1776.666,924.638,1776.666Zm-192.9-66.609c-4.037,0-8,.609-10.422,2.478-1.072.827-2.5,2.336-2.492,5.891.014,12.949,62.652,35.387,146.461,46.035,56.672,7.2,99.473,4.981,127.236-6.6,15.9-6.633,33.772-8.43,40.844-8.9,3.82-16.512,21.625-99.838.9-134.789l-40.442-2.379a4,4,0,0,1-2.123-.762,156.15,156.15,0,0,0-58.551-23.666c-20.195-3.564-32.945-17.972-43.189-29.548-8.656-9.782-14.229-15.665-19.717-13.745-.791.28-3.2,1.129-3.654,6.735-1.33,16.316,14.894,47.666,25.5,53.488a4,4,0,0,1-1.5,7.484c-2.912.307-71.645,7.508-97.227,3.729-8.011-1.184-17.826-3.338-28.218-5.619-16.3-3.576-43.575-9.567-47.426-6.158-1.86,1.963-2.42,5.353-1.485,9.054,1.328,5.256,6.022,11.948,15.207,14.965a4,4,0,0,1-2.375,7.639c-7.816-2.293-30.017-7.149-38.744-2.11a5.544,5.544,0,0,0-2.879,3.6c-2.423,9.9,22.6,20.41,35.1,23.949a4,4,0,0,1-1.793,7.787c-7.172-1.281-18.982-1.724-22.777,1.3a2.292,2.292,0,0,0-.977,1.84c-.482,9.7,14.379,23.285,48.635,31.949.431.1.75.186.935.237a4,4,0,0,1-1.99,7.748c-.258-.065-.514-.129-.767-.194A56.67,56.67,0,0,0,731.741,1710.057Z"/><path fill="#6556ff" d="M973.406,1598.829c56.76-13.086,152.363-35.212,272.669-63.5,161.805-38.043,242.861-57.949,250.416-101.3,4.837-27.755-23.181-43.644-37.122-74.243-27.563-60.5-8.412-166.608,172.758-366.256,0,0,187.3,422.531,177.175,602.845s-836.8,171.748-836.8,171.748Z"/><path fill="#fff" d="M1544.888,1462.76A4,4,0,0,1,1540.9,1459l-24.279-397.8a4,4,0,1,1,7.984-.488l24.28,397.8a4,4,0,0,1-3.748,4.236C1545.052,1462.758,1544.97,1462.76,1544.888,1462.76Z"/><path fill="#fff" d="M1277.577,1531.9a4,4,0,0,1-.953-7.885l267.934-66.027a3.965,3.965,0,0,1,1.894,0c22.733,5.48,45.465,12,67.563,19.394A820.323,820.323,0,0,1,1726,1524.334a4,4,0,0,1-3.633,7.129,812.722,812.722,0,0,0-110.885-46.5c-21.576-7.213-43.761-13.6-65.955-18.974l-266.986,65.794A4.015,4.015,0,0,1,1277.577,1531.9Z"/><path fill="#080717" d="M825.868,1726.713c-.109,0-.219,0-.33-.014-30.473-2.488-82.732-15.308-84.941-15.851a4,4,0,0,1,1.914-7.77c.535.133,53.847,13.213,83.679,15.649a4,4,0,0,1-.322,7.986Z"/><path fill="#080717" d="M818.437,1684.381c-.141,0-.282-.008-.422-.021-41.412-4.33-102.721-17.557-103.336-17.69a4,4,0,1,1,1.7-7.82c.609.133,61.5,13.269,102.473,17.553a4,4,0,0,1-.41,7.978Z"/><path fill="#080717" d="M825.864,1651.387c-32.492,0-98.927-16.564-101.74-17.27a4,4,0,0,1,1.945-7.761c.68.172,68.291,17.031,99.8,17.031a4,4,0,1,1,0,8Z"/></svg>